<?xml version="1.0" encoding="iso-8859-1"?>
<!-- Uploaded to: SVG Repo, www.svgrepo.com, Generator: SVG Repo Mixer Tools -->
<!DOCTYPE svg PUBLIC "-//W3C//DTD SVG 1.1//EN" "http://www.w3.org/Graphics/SVG/1.1/DTD/svg11.dtd">
<svg fill="#000000" version="1.1" id="Capa_1" xmlns="http://www.w3.org/2000/svg" xmlns:xlink="http://www.w3.org/1999/xlink" 
	 width="800px" height="800px" viewBox="0 0 404.085 404.085"
	 xml:space="preserve">
<g>
	<g>
		<path d="M86.176,187.497c31.217-31.212,82.011-31.212,113.23,0c1.986,1.983,1.986,5.204,0,7.19c-1.985,1.984-5.204,1.984-7.192,0
			c-27.253-27.246-71.599-27.246-98.85,0c-27.248,27.255-27.248,71.597-0.002,98.849c23.999,23.995,62.552,27.288,90.039,7.6
			c3.781-2.33,5.973-1.28,7.89,0.709c3.831,4.598,54.621,56.039,88.146,89.817c2.907,2.91,7.989,2.91,10.896,0
			c1.455-1.456,2.256-3.391,2.256-5.45s-0.801-3.995-2.243-5.437l-90.012-89.464c-1.858-1.847-2.252-4.518,0.2-7.791
			c8.533-11.395,13.436-26.213,13.436-39.406c0-2.809,2.276-5.085,5.085-5.085c2.808,0,5.085,2.276,5.085,5.085
			c0,14.335-5.069,30.168-13.664,42.939l87.048,86.516c3.376,3.375,5.235,7.864,5.235,12.643c0,4.773-1.859,9.264-5.235,12.641
			c-3.377,3.376-7.867,5.233-12.641,5.233c-4.777,0-9.266-1.858-12.652-5.247c-58.523-58.962-78.78-79.779-85.929-87.521
			c-13.16,8.518-28.267,12.714-43.347,12.712c-20.724,0-41.381-7.901-56.783-23.302C54.962,269.508,54.962,218.716,86.176,187.497z"
			/>
		<path d="M182.136,349.743c0,0-21.486,17.532-30.194,22.743c-9.981,5.972-26.386,9.586-37.332,5.645l-77.399-27.85
			c-10.583-3.807-19.521-16.525-19.521-27.772V75.834c0-4.874,1.677-8.736,4.727-10.878c3.046-2.144,7.25-2.417,11.838-0.764
			l27.674,9.958c2.266,0.817,4.774-0.36,5.592-2.633c0.818-2.271-0.362-4.775-2.633-5.594l-27.674-9.958
			c-7.234-2.604-14.459-1.932-19.824,1.838c-5.365,3.771-8.442,10.344-8.442,18.031v246.676c0,14.829,11.352,30.978,25.305,35.999
			l77.399,27.85c4.492,1.618,9.643,2.387,14.95,2.387c11.004,0,22.151-4.104,30.6-9.275c8.257-5.054,30.194-22.744,30.194-22.744
			c1.93-1.453,2.315-4.193,0.862-6.122S184.062,348.29,182.136,349.743z"/>
		<path d="M370.233,29.646L303.598,3.229c-13.659-5.414-32.935-4.317-45.687,5.561l-12.009,8.564
			c-10.67,7.611-74.93,53.804-74.93,53.804c-11.093,7.984-16.515,11.626-20.026,11.626c-5.767,0-22.467-5.104-22.467-5.104
			c-2.397-0.333-4.603,1.327-4.94,3.716c-0.337,2.39,1.326,4.602,3.716,4.941c0,0,17.925,5.104,22.469,5.104
			c7.729,0,16.293-5.945,26.358-13.188c0,0,64.238-46.177,74.9-53.783l12.008-8.564c10.736-7.596,26.583-8.832,37.386-4.55
			l66.633,26.417c10.509,4.167,19.385,17.234,19.385,28.538v235.127c0,4.872-1.679,8.736-4.727,10.878s-7.251,2.413-11.838,0.764
			l-69.556-25.477c-12.189-4.517-23.634-9.211-34.655-1.734c-4.471,3.032-11.776,7.923-11.85,7.97
			c-2.034,1.303-2.625,4.007-1.324,6.04s4.006,2.625,6.04,1.322c0.312-0.2,7.559-5.124,12.272-8.259
			c8.07-5.368,14.372-1.626,26.482,2.86l69.634,25.507c2.906,1.045,5.811,1.562,8.596,1.562c4.144,0,8.021-1.146,11.228-3.402
			c5.364-3.771,8.442-10.343,8.442-18.029V66.312C395.136,51.538,383.964,35.091,370.233,29.646z"/>
	</g>
</g>
</svg>